<svg xmlns="http://www.w3.org/2000/svg" width="32" height="32" fill="none" viewBox="0 0 32 32">
  <g clip-path="url(#a)">
    <path fill="#000" d="M15.331 14.032h-5.76v-2.424h6.192L16.483 7H3.811v18h12.816v-4.608H9.571v-2.184h5.76v-4.176Zm3.437 1.368h3.84v7.088h.592c.47 0 .805-.048 1.008-.144.213-.096.32-.32.32-.672V15.4h3.84V25h-1.92l-1.12-1.088c-.768.917-1.861 1.376-3.28 1.376-1.141 0-1.973-.24-2.496-.72-.523-.49-.784-1.307-.784-2.448V15.4Z"/>
  </g>
  <defs>
    <clipPath id="a">
      <rect width="32" height="32" fill="#fff" rx="8"/>
    </clipPath>
  </defs>
</svg>
